# Blender v3.0.1 OBJ File: 'blocks.blend'
# www.blender.org
mtllib block_5.mtl
o Cylinder_Cylinder.001
v 0.000000 -0.312367 -0.312367
v 0.000000 1.677999 -0.312367
v 0.270518 -0.312367 -0.156183
v 0.270518 1.677999 -0.156183
v 0.270518 -0.312367 0.156183
v 0.270518 1.677999 0.156183
v -0.000000 -0.312367 0.312367
v -0.000000 1.677999 0.312367
v -0.270518 -0.312367 0.156183
v -0.270518 1.677999 0.156183
v -0.270518 -0.312367 -0.156183
v -0.270518 1.677999 -0.156183
vt 0.673992 0.517954
vt 0.673992 0.555180
vt 0.672402 0.555180
vt 0.672402 0.517954
vt 0.670812 0.555180
vt 0.670812 0.517955
vt 0.667632 0.555180
vt 0.667632 0.517954
vt 0.666042 0.555180
vt 0.666042 0.517954
vt 0.700904 0.529254
vt 0.700301 0.529953
vt 0.699699 0.529254
vt 0.699699 0.527855
vt 0.700301 0.527155
vt 0.700904 0.527855
vt 0.678762 0.517955
vt 0.678762 0.555180
vt 0.677172 0.555180
vt 0.677172 0.517955
vt 0.701751 0.529953
vt 0.702354 0.529254
vt 0.702354 0.527855
vt 0.701751 0.527155
vt 0.701149 0.527855
vt 0.701149 0.529254
vn 0.0000 -0.6100 -0.7924
vn 0.0000 0.6100 -0.7924
vn 0.6862 0.6100 -0.3962
vn 0.6862 -0.6100 -0.3962
vn 0.6862 0.6100 0.3962
vn 0.6862 -0.6100 0.3962
vn 0.0000 0.6100 0.7924
vn 0.0000 -0.6100 0.7924
vn -0.6862 0.6100 0.3962
vn -0.6862 -0.6100 0.3962
vn -0.6862 0.6100 -0.3962
vn -0.6862 -0.6100 -0.3962
g Cylinder_Cylinder.001_Material.001
usemtl Material.001
s 1
f 1/1/1 2/2/2 4/3/3 3/4/4
f 3/4/4 4/3/3 6/5/5 5/6/6
f 5/6/6 6/5/5 8/7/7 7/8/8
f 7/8/8 8/7/7 10/9/9 9/10/10
f 4/11/3 2/12/2 12/13/11 10/14/9 8/15/7 6/16/5
f 9/17/10 10/18/9 12/19/11 11/20/12
f 11/20/12 12/19/11 2/2/2 1/1/1
f 1/21/1 3/22/4 5/23/6 7/24/8 9/25/10 11/26/12
